HIERARCHY
ROOT Hips
{
	OFFSET -3.958830 18.904000 13.208200
	CHANNELS 6 Xposition Yposition Zposition Zrotation Yrotation Xrotation 
	JOINT LHipJoint
	{
		OFFSET 0.000000 0.000000 0.000000
		CHANNELS 3 Zrotation Yrotation Xrotation
		JOINT LeftUpLeg
		{
			OFFSET 1.800000 -1.400000 0.085000
			CHANNELS 3 Zrotation Yrotation Xrotation
			JOINT LeftLeg
			{
				OFFSET 2.215000 -6.000000 0.000000
				CHANNELS 3 Zrotation Yrotation Xrotation
				JOINT LeftFoot
				{
					OFFSET 2.500000 -6.900000 0.000000
					CHANNELS 3 Zrotation Yrotation Xrotation
					JOINT LeftToeBase
					{
						OFFSET 0.200000 -0.500000 1.950000
						CHANNELS 3 Zrotation Yrotation Xrotation
						End Site
						{
							OFFSET 0.000000 0.000000 0.000000
						}
					}
				}
			}
		}
	}
	JOINT RHipJoint
	{
		OFFSET 0.000000 0.000000 0.000000
		CHANNELS 3 Zrotation Yrotation Xrotation
		JOINT RightUpLeg
		{
			OFFSET -1.800000 -1.400000 0.085000
			CHANNELS 3 Zrotation Yrotation Xrotation
			JOINT RightLeg
			{
				OFFSET -2.215000 -6.000000 0.000000
				CHANNELS 3 Zrotation Yrotation Xrotation
				JOINT RightFoot
				{
					OFFSET -2.500000 -6.900000 0.000000
					CHANNELS 3 Zrotation Yrotation Xrotation
					JOINT RightToeBase
					{
						OFFSET -0.200000 -0.500000 1.950000
						CHANNELS 3 Zrotation Yrotation Xrotation
						End Site
						{
							OFFSET 0.000000 0.000000 0.000000
						}
					}
				}
			}
		}
	}
	JOINT LowerBack
	{
		OFFSET 0.000000 0.000000 0.000000
		CHANNELS 3 Zrotation Yrotation Xrotation
		JOINT Spine
		{
			OFFSET -0.087000 1.940000 -0.288900
			CHANNELS 3 Zrotation Yrotation Xrotation
			JOINT Spine1
			{
				OFFSET 0.000000 1.950000 0.060000
				CHANNELS 3 Zrotation Yrotation Xrotation
				JOINT Neck
				{
					OFFSET 0.000000 0.000000 0.000000
					CHANNELS 3 Zrotation Yrotation Xrotation
					JOINT Neck1
					{
						OFFSET 0.000000 1.600000 0.340000
						CHANNELS 3 Zrotation Yrotation Xrotation
						JOINT Head
						{
							OFFSET 0.000000 1.667000 -0.240000
							CHANNELS 3 Zrotation Yrotation Xrotation
							End Site
							{
								OFFSET 0.000000 0.000000 0.000000
							}
						}
					}
				}
				JOINT LeftShoulder
				{
					OFFSET 0.000000 0.000000 0.000000
					CHANNELS 3 Zrotation Yrotation Xrotation
					JOINT LeftArm
					{
						OFFSET 2.700000 1.550000 -0.730000
						CHANNELS 3 Zrotation Yrotation Xrotation
						JOINT LeftForeArm
						{
							OFFSET 5.450000 0.000000 0.000000
							CHANNELS 3 Zrotation Yrotation Xrotation
							JOINT LeftHand
							{
								OFFSET 3.450000 0.000000 0.000000
								CHANNELS 3 Zrotation Yrotation Xrotation
								JOINT LeftHandIndex1
								{
									OFFSET 0.750000 0.000000 0.000000
									CHANNELS 3 Zrotation Yrotation Xrotation
									End Site
									{
										OFFSET 0.000000 0.000000 0.000000
									}
								}
							}
						}
					}
				}
				JOINT RightShoulder
				{
					OFFSET 0.000000 0.000000 0.000000
					CHANNELS 3 Zrotation Yrotation Xrotation
					JOINT RightArm
					{
						OFFSET -2.700000 1.550000 -0.730000
						CHANNELS 3 Zrotation Yrotation Xrotation
						JOINT RightForeArm
						{
							OFFSET -5.450000 0.000000 0.000000
							CHANNELS 3 Zrotation Yrotation Xrotation
							JOINT RightHand
							{
								OFFSET -3.450000 0.000000 0.000000
								CHANNELS 3 Zrotation Yrotation Xrotation
								JOINT RightHandIndex1
								{
									OFFSET -0.750000 0.000000 0.000000
									CHANNELS 3 Zrotation Yrotation Xrotation
									End Site
									{
										OFFSET 0.000000 0.000000 0.000000
									}
								}
							}
						}
					}
				}
			}
		}
	}
}
MOTION
Frames: 6
Frame Time: 0.016667
-2.226240 16.848400 -5.037310 1.626717 -25.482035 -9.243533 -15.100465 12.821123 3.737046 26.293909 -3.250614 -15.071808 -16.835421 15.959164 32.727219 0.574269 8.992336 1.191239 0.415750 0.486770 0.306830 18.436476 -10.590964 1.988709 -20.577622 -1.100674 -27.526027 0.851570 -10.149835 43.616756 -0.592924 -6.709440 1.734998 0.354350 0.015160 0.169790 -3.886409 -2.263441 -7.747751 10.599866 -4.041384 17.305751 -1.120073 -5.631914 15.775110 -3.109619 -3.221575 -9.950584 -9.851068 7.614135 41.548063 -4.640910 7.142410 -7.535290 4.194973 -18.618785 0.420331 6.936228 -29.789041 0.426751 -0.462783 -28.762970 2.513250 -3.702386 3.217179 0.037630 0.126230 0.114240 0.111750 1.842783 19.323854 7.910050 33.661446 24.558125 5.858813 157.735174 60.210840 128.948179 2.024497 -1.729001 0.037580 0.091660 -0.133300 -0.048720 
-2.187470 16.858570 -5.025990 1.122936 -23.071674 -9.452305 -15.106904 12.855833 3.705534 26.205294 -2.858127 -16.043473 -15.524489 15.891977 33.850935 0.528456 9.007053 1.181440 0.430100 0.505200 0.302640 18.421708 -10.699164 1.918347 -20.565598 -0.848440 -25.982691 1.030274 -10.095900 43.426653 -0.585213 -6.733426 1.731964 0.385410 0.044470 0.174990 -3.823256 -2.146999 -7.714647 9.688356 -3.085855 16.711095 -0.493891 -4.755131 15.662627 -3.257128 -3.022989 -9.304576 -9.230991 6.881612 41.016357 -4.359240 6.396720 -7.624610 4.964885 -19.761128 -0.305906 7.664905 -32.342851 0.339792 1.037821 -32.376240 2.408862 -3.707334 3.266359 0.015890 0.152940 0.088710 0.117670 1.370206 20.894556 7.377786 30.261433 27.416965 5.208370 166.461016 65.230153 148.135792 1.860816 -1.730038 0.030050 0.106870 -0.126590 -0.045370 
-2.149260 16.863310 -5.009890 0.388501 -20.384566 -9.453989 -15.097782 12.888791 3.660872 26.057585 -2.461403 -17.221241 -13.844198 15.551490 34.832367 0.452722 8.939013 1.197268 0.426890 0.493520 0.295780 18.416631 -10.840605 1.862063 -20.371262 -0.589216 -24.509376 0.999734 -9.983538 43.347423 -0.573760 -6.750791 1.730522 0.402510 0.069760 0.169760 -3.804867 -1.956767 -7.684059 9.212182 -2.217152 16.006435 -0.218795 -3.798399 15.263027 -3.126745 -2.808481 -8.779984 -8.721106 5.942814 41.152023 -4.105640 5.456510 -7.368120 5.734242 -21.291792 -0.705449 7.959220 -34.627695 0.104115 4.626784 -36.992139 1.481391 -3.706991 3.281362 0.009830 0.171490 0.058780 0.111110 0.366126 22.795797 6.564766 26.880205 30.206019 4.642150 170.868888 70.557025 158.833038 1.781903 -1.718256 0.008330 0.124480 -0.109380 -0.052570 
-2.116400 16.869090 -4.997360 0.078909 -17.745086 -9.777541 -15.102488 12.920423 3.604550 25.580057 -1.964309 -18.229389 -12.393298 15.284838 35.728008 0.401829 8.882407 1.219742 0.418310 0.479300 0.278090 18.395308 -10.964681 1.839936 -20.377943 -0.187587 -23.051040 1.194167 -9.997131 43.576152 -0.574496 -6.840611 1.713507 0.414300 0.104600 0.161260 -3.748278 -1.772121 -7.674418 8.237620 -1.071100 15.559799 0.115551 -2.492275 14.988647 -2.987277 -2.459927 -8.350786 -7.989359 4.930972 41.404378 -3.634630 4.498650 -6.910280 6.175104 -23.379538 -1.080275 8.709737 -37.027278 -0.432801 9.167505 -42.841521 -0.169565 -3.710383 3.282207 0.000840 0.190700 0.028240 0.114300 -0.320771 25.266089 5.857586 23.417791 33.140649 4.485375 -178.659070 77.201899 175.483325 1.774790 -1.824963 -0.013940 0.148530 -0.093820 -0.051280 
-2.076690 16.883350 -4.990250 -0.366938 -14.726501 -10.202657 -15.102696 12.977824 3.514532 24.755507 -1.532890 -19.557434 -10.295960 14.686246 36.893760 0.340565 8.731554 1.267220 0.415510 0.471360 0.266600 18.374728 -11.111764 1.817930 -20.175782 0.247021 -21.347487 1.421207 -9.962699 43.640000 -0.580363 -6.895802 1.710084 0.420790 0.119040 0.148520 -3.711095 -1.570853 -7.642135 7.672576 -0.140342 15.377147 0.196064 -1.179499 14.068432 -2.560368 -2.419287 -7.663712 -7.946573 3.888577 42.475450 -3.440020 3.364020 -6.431370 6.478894 -26.575047 -0.712833 8.147178 -40.068321 -0.336622 13.316896 -46.426641 -2.138519 -3.709031 3.266009 -0.001700 0.193470 0.010380 0.117560 -1.406579 28.971594 3.391843 21.029159 34.907330 -0.305705 128.096976 85.863426 128.083995 1.444479 0.467596 -0.026660 0.165170 -0.086720 -0.049200 
-2.035360 16.895560 -4.986130 -0.709774 -11.212741 -10.802139 -15.074286 13.087154 3.376934 23.166173 -1.156027 -21.123382 -7.282539 13.696790 38.640232 0.305276 8.505572 1.349989 0.401280 0.452320 0.230630 18.359096 -11.250305 1.898277 -20.455510 0.850535 -19.678071 2.575026 -10.430565 43.934379 -0.604017 -7.081378 1.668128 0.408790 0.139410 0.136390 -3.730260 -1.431172 -7.682572 7.603495 0.565502 15.710363 -0.299655 0.031955 14.379443 -2.189572 -2.585585 -8.092594 -8.581999 2.765139 43.120614 -2.914260 1.640880 -5.528900 6.406900 -29.694109 -0.607467 8.626212 -42.279059 -1.059805 19.533774 -49.131383 -5.159170 -3.711630 3.215633 -0.013040 0.189040 -0.009720 0.130040 -2.120577 32.588509 3.524941 15.421618 37.397623 1.210696 -15.866174 80.538955 -12.157936 1.745793 -1.417519 -0.026920 0.174080 -0.079140 -0.029110 
